<svg xmlns="http://www.w3.org/2000/svg" fill="#000000" width="50" height="50" version="1.1"><rect id="backgroundrect" width="100%" height="100%" x="0" y="0" fill="none" stroke="none" style="" class=""/>
<title>linkedin</title>

<g class="currentLayer" style=""><title>Layer 1</title><path d="M46.15816388374533,0.167264945123707 h-42.326266502059305 c-0.013247657747123436,0 -0.028151272712637305,0 -0.04471084489654164,0 c-1.9854927048501212,0 -3.5967390783440067,1.596342758528372 -3.619922479401472,3.5752116345049303 v42.511733710519024 c0.023183401057466014,1.9805248331949499 1.6344297745513507,3.5785235489417118 3.619922479401472,3.5785235489417118 c0.016559572183904303,0 0.0314631871494182,0 0.048022759333322486,0 h42.31798671596735 c0.013247657747123436,0 0.02980722993102771,0 0.04636680211493204,0 c1.9871486620685128,0 3.601706949999177,-1.5946868013099813 3.633170137148597,-3.5752116345049303 l0,-0.003311914436780859 v-42.50842179608225 c-0.0314631871494182,-1.9821807904133406 -1.6460214750800852,-3.5785235489417118 -3.634826094366986,-3.5785235489417118 c-0.016559572183904303,0 -0.0314631871494182,0 -0.048022759333322486,0 h0.0016559572183904305 zM14.897003514970855,42.490219532746224 h-7.375633450710959 v-23.698403752385396 h7.375633450710959 zM11.21084274683377,15.549451546752378 c-2.3597390362063577,0 -4.27071366622891,-1.9126305872409426 -4.27071366622891,-4.27071366622891 s1.9126305872409426,-4.27071366622891 4.27071366622891,-4.27071366622891 c2.3580830789879674,0 4.27071366622891,1.910974630022552 4.27071366622891,4.269057709010521 v0 c0,0.0016559572183904305 0,0.003311914436780859 0,0.006623828873561722 c0,2.3564271217695776 -1.910974630022552,4.2674017517921286 -4.2674017517921286,4.2674017517921286 c-0.0016559572183904305,0 -0.003311914436780859,0 -0.004967871655171298,0 h0 zM42.478626944481796,42.490219532746224 h-7.354106006871884 v-11.523806282778978 c0,-2.748888982528108 -0.05630254542527459,-6.284357643791669 -3.8318850033554472,-6.284357643791669 c-3.8351969177922274,0 -4.419749815884049,2.9906587364131108 -4.419749815884049,6.082330863148037 v11.727489020641002 h-7.354106006871884 v-23.698403752385396 h7.064313493653559 v3.230772533079722 h0.09604551866664494 c1.3711325768272735,-2.3100603196546454 3.851756489976132,-3.833540960573837 6.688411205078932,-3.833540960573837 c0.10101339032181611,0 0.20037082342524168,0.0016559572183904305 0.29972825652866736,0.004967871655171298 l-0.014903614965513859,0 c7.451807482756919,0 8.829563888457754,4.904945280872443 8.829563888457754,11.288660357767538 v13.007543950456801 z" id="svg_1" class=""/></g></svg>